<?xml version="1.0" encoding="utf-8"?>
<!-- Generator: Adobe Illustrator 24.2.3, SVG Export Plug-In . SVG Version: 6.00 Build 0)  -->
<svg version="1.1" id="Layer_1" xmlns="http://www.w3.org/2000/svg" xmlns:xlink="http://www.w3.org/1999/xlink" x="0px" y="0px"
	 viewBox="0 0 32 32" style="enable-background:new 0 0 32 32;" xml:space="preserve">
<style type="text/css">
	.st0{fill:#00BFD8;}
</style>
<g id="_06">
	<path class="st0" d="M29,30H3c-0.6,0-1-0.4-1-1V11c0-0.6,0.4-1,1-1h26c0.6,0,1,0.4,1,1v18C30,29.6,29.6,30,29,30z M4,28h24V12H4V28
		z"/>
	<path class="st0" d="M22,12H10c-0.6,0-1-0.4-1-1V9.5c0-3,2.5-5.5,5.5-5.5h3c3,0,5.5,2.5,5.5,5.5V11C23,11.6,22.6,12,22,12z M11,10
		h10V9.5C21,7.6,19.4,6,17.5,6h-3C12.6,6,11,7.6,11,9.5V10z"/>
	<path class="st0" d="M16,22c-0.1,0-0.3,0-0.4-0.1C10,19.6,3.8,17.1,2.9,17L3,15c1,0,7.5,2.6,13,4.9l12.6-4.8l0.7,1.9l-13,5
		C16.2,22,16.1,22,16,22z"/>
</g>
</svg>
