<?xml version="1.0" encoding="utf-8"?>
<!-- Generator: Adobe Illustrator 24.2.3, SVG Export Plug-In . SVG Version: 6.00 Build 0)  -->
<svg version="1.1" id="Layer_1" xmlns="http://www.w3.org/2000/svg" xmlns:xlink="http://www.w3.org/1999/xlink" x="0px" y="0px"
	 viewBox="0 0 512 512" style="enable-background:new 0 0 512 512;" xml:space="preserve">
<style type="text/css">
	.st0{fill:#00BFD8;}
</style>
<g>
	<g>
		<path class="st0" d="M482,370.4c-16.8-10.9-39.3-6.1-50.2,10.7c-6.4,9.9-18.6,19.8-34.7,28.4l-41.4-88.7
			c12,0.8,23.5,5.3,32.9,13.2l10.3,8.7c6.6,5.5,14.8,8.5,23.3,8.5c1.1,0,2.1,0,3.2-0.1c9.7-0.8,18.4-5.4,24.6-12.8
			c12.9-15.3,10.9-38.3-4.5-51.1l-10.3-8.7c-26.5-22.2-60.1-32.8-94.6-29.8l-150,13.1c-12.2,1.1-23.5-6.2-27.7-17.7l-11.9-33.1
			l90.7-12.8c17.5-2.5,34.9,2,48.9,12.7l13.7,10.4c5.9,4.4,12.9,6.8,20.1,6.8c1.6,0,3.2-0.1,4.7-0.3c8.9-1.2,16.7-5.9,22.1-13
			c5.4-7.1,7.7-16,6.4-24.8c-1.2-8.9-5.9-16.7-13-22.1l-13.7-10.4c-28.4-21.4-63.4-30.4-98.6-25.5L128,146.4L84,24
			C77.2,5.2,56.3-4.6,37.5,2.1C18.7,8.9,8.9,29.8,15.6,48.6l79.1,219.9c9.9,27.6,31.1,48.6,57,58.8L114.2,408
			c-14.7-8.2-25.9-17.5-32-26.9c-10.9-16.8-33.4-21.6-50.2-10.7c-16.8,10.9-21.6,33.4-10.7,50.2c18.3,28.2,51.2,51.7,95.1,68
			C157.6,503.9,206.2,512,257,512s99.4-8.1,140.6-23.4c43.9-16.3,76.8-39.8,95.1-68C503.6,403.8,498.8,381.3,482,370.4z
			 M376.8,418.8c-1.5,0.6-2.9,1.2-4.5,1.7c-5.4,2-11,3.9-16.8,5.6l-47.5-101.8l23.7-2.1L376.8,418.8z M333.5,431.7
			c-23.8,5.1-49.7,7.7-76.5,7.7c-28,0-54.9-2.9-79.6-8.4l46.3-99.3l60.7-5.3L333.5,431.7z M235.7,153.8c29.3-4.1,58.4,3.4,82.1,21.2
			l13.7,10.4c2.4,1.8,3.9,4.4,4.3,7.4c0.4,3-0.3,5.9-2.1,8.3c-1.8,2.4-4.4,3.9-7.4,4.3c0,0,0,0,0,0c-2.9,0.4-5.9-0.3-8.3-2.1
			l-13.7-10.4c-15.5-11.7-34-17.8-53-17.8c-4.1,0-8.3,0.3-12.5,0.9l-95.4,13.4l-7.7-21.5L235.7,153.8z M115.7,261L36.7,41
			c-2.6-7.2,1.2-15.3,8.4-17.9c7.2-2.6,15.3,1.2,17.9,8.4l79.1,220c7.6,21,28.4,34.3,50.6,32.4l150-13.1
			c28.5-2.5,56.3,6.3,78.3,24.7l10.3,8.7c5.9,4.9,6.7,13.8,1.7,19.7c-2.4,2.9-5.8,4.6-9.5,4.9c0,0,0,0,0,0
			c-3.7,0.3-7.3-0.8-10.2-3.2l-10.3-8.7c-14.4-12.1-32.2-18.6-50.8-18.6c-2.3,0-4.7,0.1-7,0.3l-150,13.1
			C160.2,314.8,127.6,293.9,115.7,261z M173.7,333.3c4.8,0.7,9.7,1.1,14.7,1.1c2.9,0,5.8-0.1,8.7-0.4l1-0.1l-42.6,91.3
			c-4.7-1.5-9.4-3-13.9-4.7c-2.5-0.9-4.9-1.9-7.3-2.8L173.7,333.3z M473.9,408.5c-15.6,24.1-44.7,44.6-84.1,59.2
			c-38.8,14.4-84.8,22-132.9,22s-94-7.6-132.9-22c-39.4-14.6-68.5-35.1-84.1-59.2c-4.2-6.5-2.3-15.1,4.1-19.3c2.3-1.5,5-2.2,7.6-2.2
			c4.6,0,9.1,2.2,11.7,6.4c12.2,18.8,37.2,35.9,70.4,48.2c35.7,13.3,78.3,20.3,123.1,20.3s87.4-7,123.1-20.3
			c33.2-12.3,58.2-29.4,70.4-48.2c4.2-6.5,12.9-8.3,19.3-4.1C476.3,393.3,478.1,402,473.9,408.5z"/>
	</g>
</g>
</svg>
