<svg id="Layer_1" data-name="Layer 1" xmlns="http://www.w3.org/2000/svg" viewBox="0 0 813.3 135"><defs><style>.cls-1{font-size:56.86px;fill:#00bfd8;font-family:Lato-Black, Lato;font-weight:800;}.cls-2{letter-spacing:-0.08em;}.cls-3{fill:#084b70;}</style></defs><text class="cls-1" transform="translate(236.5 51.14)"><tspan class="cls-2">T</tspan><tspan x="29.51" y="0">AX &amp; </tspan><tspan x="0" y="68.23">FINANCIAL SERVICES</tspan></text><path class="cls-3" d="M392.33,234.94a67.5,67.5,0,1,0,67.5,67.5A67.5,67.5,0,0,0,392.33,234.94Zm1,102a36.5,36.5,0,1,1,36.5-36.5A36.5,36.5,0,0,1,393.33,336.94Z" transform="translate(-324.83 -234.94)"/><rect class="cls-3" x="116" y="7" width="30" height="117"/><path class="cls-3" d="M533,241.94v117H503V269.09l-17.66,10a1.4,1.4,0,0,1-2-.89l-5-20.62A1.34,1.34,0,0,1,479,256l24-11.25,5-2.33a5.09,5.09,0,0,1,2.17-.48Z" transform="translate(-324.83 -234.94)"/></svg>