<?xml version="1.0" encoding="utf-8"?>
<!-- Generator: Adobe Illustrator 24.2.3, SVG Export Plug-In . SVG Version: 6.00 Build 0)  -->
<svg version="1.1" id="Layer_1" xmlns="http://www.w3.org/2000/svg" xmlns:xlink="http://www.w3.org/1999/xlink" x="0px" y="0px"
	 viewBox="0 0 64 64" style="enable-background:new 0 0 64 64;" xml:space="preserve">
<style type="text/css">
	.st0{fill:#00BFD8;}
</style>
<g id="_2">
	<path class="st0" d="M56,46H8c-0.6,0-1-0.4-1-1V16c0-0.6,0.4-1,1-1h13c0.6,0,1,0.4,1,1c0,0.6-0.4,1-1,1H9v27h46V17H43
		c-0.6,0-1-0.4-1-1c0-0.6,0.4-1,1-1h13c0.6,0,1,0.4,1,1v29C57,45.6,56.6,46,56,46z"/>
	<path class="st0" d="M38,53H26c-0.6,0-1-0.4-1-1c0-0.1,0-0.2,0-0.3l2-7c0.1-0.4,0.5-0.7,1-0.7h8c0.4,0,0.8,0.3,1,0.7l2,7
		c0.2,0.5-0.2,1.1-0.7,1.2C38.2,53,38.1,53,38,53z M27.3,51h9.3l-1.4-5h-6.5L27.3,51z"/>
	<path class="st0" d="M40.5,56H27.1c-0.6,0-1-0.4-1-1s0.4-1,1-1h13.4c0.3,0,0.5-0.2,0.5-0.5S40.8,53,40.5,53h-17
		c-0.3,0-0.5,0.2-0.5,0.5s0.2,0.5,0.5,0.5c0.6,0,1,0.4,1,1s-0.4,1-1,1c-1.4,0-2.5-1.1-2.5-2.5s1.1-2.5,2.5-2.5h17
		c1.4,0,2.5,1.1,2.5,2.5S41.9,56,40.5,56z"/>
	<path class="st0" d="M23.9,56h-0.4c-0.6,0-1-0.4-1-1s0.4-1,1-1h0.4c0.6,0,1,0.4,1,1S24.5,56,23.9,56z"/>
	<path class="st0" d="M36.9,49h-9.7c-0.6,0-1-0.4-1-1s0.4-1,1-1h9.7c0.6,0,1,0.4,1,1S37.4,49,36.9,49z"/>
	<path class="st0" d="M56,42.2H8c-0.6,0-1-0.4-1-1s0.4-1,1-1h48c0.6,0,1,0.4,1,1S56.6,42.2,56,42.2z"/>
	<path class="st0" d="M33.7,32.2c-0.5,0-1-0.1-1.5-0.2c-0.3-0.1-0.6-0.4-0.7-0.7c-0.9-3.2,1-6.4,4.2-7.3c1-0.3,2.1-0.3,3.1,0
		c0.3,0.1,0.6,0.4,0.7,0.7c0.9,3.2-1,6.4-4.2,7.3C34.8,32.1,34.3,32.2,33.7,32.2L33.7,32.2z M33.3,30.2c2.2,0.2,4.1-1.3,4.4-3.5
		c0-0.3,0-0.6,0-0.9c-2.2-0.2-4.1,1.3-4.4,3.5C33.3,29.6,33.3,29.9,33.3,30.2z"/>
	<path class="st0" d="M30.3,33.2c-3.3,0-6-2.7-6-5.9c0-0.5,0.1-1,0.2-1.6c0.1-0.3,0.4-0.6,0.7-0.7c3.2-0.9,6.4,1,7.3,4.2
		c0.3,1,0.3,2.1,0,3.1c-0.1,0.3-0.4,0.6-0.7,0.7C31.3,33.1,30.8,33.2,30.3,33.2z M31.5,32L31.5,32z M26.3,26.8
		c-0.2,2.2,1.3,4.1,3.5,4.4c0.3,0,0.6,0,0.9,0c0.2-2.2-1.3-4.1-3.5-4.4C26.9,26.8,26.6,26.8,26.3,26.8z"/>
	<path class="st0" d="M32,38c-0.6,0-1-0.4-1-1V22c0-0.6,0.4-1,1-1s1,0.4,1,1v15C33,37.6,32.6,38,32,38z"/>
	<path class="st0" d="M32,23c-4.4,0-8-3.6-8-8s3.6-8,8-8s8,3.6,8,8C40,19.4,36.4,23,32,23z M32,9c-3.3,0-6,2.7-6,6s2.7,6,6,6
		s6-2.7,6-6C38,11.7,35.3,9,32,9z"/>
	<path class="st0" d="M31.3,19.5v-1.1c-0.7,0-1.3-0.2-2-0.5l0.3-1.3c0.6,0.3,1.2,0.5,1.9,0.5c0.7,0,1.1-0.3,1.1-0.7
		c0-0.4-0.4-0.7-1.2-1c-1.2-0.4-2.1-1-2.1-2.1c0-1.1,0.9-2,1.9-2.1v-1.1h1.1v1c0.6,0,1.1,0.1,1.7,0.4l-0.3,1.3
		c-0.5-0.3-1.1-0.4-1.7-0.4c-0.7,0-1,0.3-1,0.6c0,0.4,0.4,0.6,1.4,1c1.4,0.5,1.9,1.1,1.9,2.2c0,1.1-0.9,2.1-2.1,2.1v1.2H31.3z"/>
	<path class="st0" d="M37,38H27c-0.6,0-1-0.4-1-1s0.4-1,1-1h10c0.6,0,1,0.4,1,1S37.6,38,37,38z"/>
</g>
</svg>
