<?xml version="1.0" encoding="utf-8"?>
<!-- Generator: Adobe Illustrator 24.2.3, SVG Export Plug-In . SVG Version: 6.00 Build 0)  -->
<svg version="1.1" id="Layer_1" xmlns="http://www.w3.org/2000/svg" xmlns:xlink="http://www.w3.org/1999/xlink" x="0px" y="0px"
	 viewBox="0 0 32 32" style="enable-background:new 0 0 32 32;" xml:space="preserve">
<style type="text/css">
	.st0{fill:#00BFD8;}
</style>
<g id="Layer_7">
	<path class="st0" d="M16.6,8.2c-0.4-0.1-0.8-0.3-0.8-0.5s0.3-0.2,0.5-0.2c0.3,0,0.7,0.1,1,0.2l0.3,0.1L18,6.5l-0.2-0.1
		c-0.3-0.2-0.7-0.3-1.1-0.3V5.4h-1.4v0.8C14.6,6.4,14,7.1,14,7.9c0,1.1,0.9,1.5,1.7,1.8c0.8,0.3,0.7,0.4,0.7,0.5
		c0,0.3-0.5,0.3-0.6,0.3c-0.4,0-0.9-0.1-1.3-0.3l-0.3-0.1l-0.4,1.5l0.2,0.1c0.4,0.2,0.8,0.3,1.3,0.4v0.8h1.3v-0.9
		c0.8-0.2,1.4-0.9,1.5-1.8C18.1,9.1,17.7,8.6,16.6,8.2z"/>
	<path class="st0" d="M16,16c-3.9,0-7-3.1-7-7s3.1-7,7-7s7,3.1,7,7S19.9,16,16,16z M16,4c-2.8,0-5,2.2-5,5s2.2,5,5,5s5-2.2,5-5
		S18.8,4,16,4z"/>
	<path class="st0" d="M16,30c-0.6,0-1-0.4-1-1V15c0-0.6,0.4-1,1-1c0.6,0,1,0.4,1,1v14C17,29.6,16.6,30,16,30z"/>
	<path class="st0" d="M18.7,23c-1.1,0-2.3-0.3-3.2-1c-0.3-0.2-0.5-0.6-0.4-0.9c0.3-3.1,3-5.4,6.1-5.1c1,0.1,1.9,0.4,2.7,1
		c0.3,0.2,0.5,0.6,0.4,0.9C24,20.8,21.6,23,18.7,23z M17.1,20.7c1.8,0.8,4,0,4.8-1.8c0.1-0.2,0.2-0.4,0.2-0.6c-1.8-0.8-4,0-4.8,1.8
		C17.2,20.3,17.2,20.5,17.1,20.7z"/>
	<path class="st0" d="M13,26.5c-0.6,0-1.3-0.1-1.9-0.3C9.2,25.6,7.9,24,7.5,22c-0.1-0.4,0-0.8,0.3-1c2.4-2,5.9-1.8,7.9,0.6
		c0.7,0.8,1.1,1.7,1.3,2.7c0.1,0.3-0.1,0.7-0.3,0.9C15.6,26.1,14.3,26.5,13,26.5z M9.6,22.2c0.4,1,1.2,1.8,2.2,2.2l0,0
		c1,0.4,2.1,0.3,3.1-0.3c-0.7-1.9-2.8-2.8-4.6-2.2C10,22,9.8,22.1,9.6,22.2z"/>
	<path class="st0" d="M19,30h-6c-0.6,0-1-0.4-1-1s0.4-1,1-1h6c0.6,0,1,0.4,1,1S19.6,30,19,30z"/>
</g>
</svg>
