<?xml version="1.0" encoding="utf-8"?>
<!-- Generator: Adobe Illustrator 24.2.3, SVG Export Plug-In . SVG Version: 6.00 Build 0)  -->
<svg version="1.1" id="Layer_1" xmlns="http://www.w3.org/2000/svg" xmlns:xlink="http://www.w3.org/1999/xlink" x="0px" y="0px"
	 viewBox="0 0 49 28" style="enable-background:new 0 0 49 28;" xml:space="preserve">
<style type="text/css">
	.st0{fill:#00BFD8;}
</style>
<path class="st0" d="M14,18c-5,0-9-4-9-9s4-9,9-9s9,4,9,9S19,18,14,18z M14,2c-3.9,0-7,3.1-7,7s3.1,7,7,7s7-3.1,7-7S17.9,2,14,2z"/>
<path class="st0" d="M28,26c-0.2-2-0.9-3.9-2.1-5.5c-0.4-0.5-0.8-1-1.3-1.5c-1.4-1.4-3.2-2.3-5.2-2.7C18.6,16.1,17.8,16,17,16h-6
	c-0.8,0-1.6,0.1-2.3,0.2C3.6,17.3,0,21.8,0,27c0,0.5,0.3,0.9,0.8,1H1h27v-1C28,26.7,28,26.3,28,26z M2.1,26c0.5-4.6,4.4-8,8.9-8h6
	c2.3,0,4.5,0.9,6.2,2.5c0.5,0.5,1,1,1.3,1.6c0.8,1.2,1.3,2.6,1.4,4L2.1,26z"/>
<path class="st0" d="M35,18c-5,0-9-4-9-9s4-9,9-9s9,4,9,9S40,18,35,18z M35,2c-3.9,0-7,3.1-7,7s3.1,7,7,7s7-3.1,7-7S38.9,2,35,2z"/>
<path class="st0" d="M49,27v1H22h-0.2c-0.5-0.1-0.8-0.5-0.8-1c0-0.3,0-0.7,0-1h25.9c-0.5-4.6-4.4-8-8.9-8h-6c-2.3,0-4.5,0.9-6.2,2.5
	c-0.5,0.5-1,1-1.3,1.6c-0.4-0.6-0.8-1.1-1.3-1.6c0.4-0.5,0.9-1,1.3-1.5c1.4-1.4,3.2-2.3,5.2-2.7c0.8-0.2,1.5-0.2,2.3-0.2h6
	c0.8,0,1.6,0.1,2.3,0.2C45.4,17.3,49,21.8,49,27z"/>
</svg>
