<?xml version="1.0" encoding="utf-8"?>
<!-- Generator: Adobe Illustrator 24.2.3, SVG Export Plug-In . SVG Version: 6.00 Build 0)  -->
<svg version="1.1" id="Layer_1" xmlns="http://www.w3.org/2000/svg" xmlns:xlink="http://www.w3.org/1999/xlink" x="0px" y="0px"
	 viewBox="0 0 28 28" style="enable-background:new 0 0 28 28;" xml:space="preserve">
<style type="text/css">
	.st0{fill:#00BFD8;}
</style>
<path class="st0" d="M14,18c-5,0-9-4-9-9s4-9,9-9s9,4,9,9S19,18,14,18z M14,2c-3.9,0-7,3.1-7,7s3.1,7,7,7s7-3.1,7-7S17.9,2,14,2z"/>
<path class="st0" d="M28,28H1c-0.5,0-0.6-0.5-0.6-1s1.1-1,1.7-1h23.9c-0.5-4.6-4.4-8-8.9-8h-6c-5,0-9,4-9,9c0,0.6-0.4,1-1,1
	s-1-0.4-1-1c0-6.1,4.9-11,11-11l0,0h6c6.1,0,11,4.9,11,11l0,0V28z"/>
</svg>
